<svg width="24" height="24" viewBox="0 0 24 24" fill="none" xmlns="http://www.w3.org/2000/svg">
<path fill-rule="evenodd" clip-rule="evenodd" d="M21 20.0082C21 20.553 20.56 21 20.0082 21H3.99185C3.44703 21 3 20.56 3 20.0082V3.99185C3 3.44703 3.44703 3 3.99185 3H20.0082C20.553 3 21 3.44005 21 3.99185V20.0082ZM15.4193 14.0288V20.9997H12.6184V14.0288H10.2715V11.3117H12.6184V9.30702C12.6184 6.98106 14.0363 5.7168 16.1108 5.7168C17.1027 5.7168 17.9548 5.78665 18.2063 5.82157V8.25929H16.7674C15.6359 8.25929 15.4193 8.79014 15.4193 9.57943V11.3117H18.1085L17.7593 14.0288H15.4193Z" fill="#424858"/>
</svg>
