<svg width="24" height="24" viewBox="0 0 24 24" fill="none" xmlns="http://www.w3.org/2000/svg">
<path d="M12 2.3999C6.6984 2.3999 2.4 6.6983 2.4 11.9999C2.4 13.8009 2.90587 15.48 3.76875 16.9202L2.48594 21.5999L7.26563 20.3452C8.66348 21.1399 10.2772 21.5999 12 21.5999C17.3016 21.5999 21.6 17.3015 21.6 11.9999C21.6 6.6983 17.3016 2.3999 12 2.3999ZM8.71406 7.52178C8.87006 7.52178 9.03035 7.52083 9.16875 7.52803C9.33995 7.53203 9.52629 7.54456 9.70469 7.93896C9.91669 8.40776 10.3783 9.58383 10.4375 9.70303C10.4967 9.82223 10.5387 9.96265 10.4563 10.1187C10.3779 10.2787 10.3371 10.3755 10.2219 10.5171C10.1027 10.6547 9.97206 10.8256 9.86406 10.9296C9.74486 11.0488 9.62178 11.1795 9.75938 11.4171C9.89698 11.6547 10.3749 12.4336 11.0813 13.0624C11.9893 13.8736 12.7554 14.1229 12.9938 14.2421C13.2322 14.3613 13.3702 14.3427 13.5078 14.1827C13.6494 14.0267 14.1025 13.4914 14.2625 13.253C14.4185 13.0146 14.5778 13.0559 14.7938 13.1343C15.013 13.2127 16.1819 13.7885 16.4203 13.9077C16.6587 14.0269 16.815 14.0859 16.875 14.1827C16.9366 14.2827 16.9367 14.7588 16.7391 15.314C16.5415 15.8684 15.5711 16.4045 15.1359 16.4421C14.6967 16.4829 14.2868 16.6395 12.2812 15.8499C9.86205 14.8971 8.33639 12.4193 8.21719 12.2593C8.09799 12.1033 7.24844 10.971 7.24844 9.80303C7.24844 8.63103 7.86293 8.05705 8.07813 7.81865C8.29733 7.58025 8.55406 7.52178 8.71406 7.52178Z" fill="#424858"/>
</svg>
